# xmcd CD database file
#
# Track frame offsets:
#	150
#	13618
#	28205
#	41399
#	53770
#	67171
#	80246
#	95137
#	108947
#	121333
#	135554
#	147818
#	160056
#	186763
#	199761
#	212554
#	226269
#	243443
#
# Disc length: 3430 seconds
#
# Revision: 0
# Processed by: cddbd v1.5.2PL0 Copyright (c) Steve Scherf et al.
# Submitted via: CDex 1.70beta2
#
DISCID=fb0d6412
DTITLE=The Savoy Recordings - Stan Getz and Dexter Gordon - Part 2
DYEAR=1900
DGENRE=Jazz
TTITLE0=Blow Mr. Dexter
TTITLE1=Dexter Rides Again
TTITLE2=Dexter's Deck
TTITLE3=Dexter's Riff
TTITLE4=Dexter Digs In (original)
TTITLE5=Dexter Digs In (alt)
TTITLE6=I Can't Escape From You
TTITLE7=Long Tall Dexter (original)
TTITLE8=Long Tall Dexter (alt)
TTITLE9=Dexter's Cuttin' Out
TTITLE10=Dexter's Minor Mad
TTITLE11=So Easy
TTITLE12=Settin' The Pace
TTITLE13=Dexter's Mood (original)
TTITLE14=Dextrose (original)
TTITLE15=Dextivity (original)
TTITLE16=Dextivity (previously unissued)
TTITLE17=Index (original)
EXTD=
EXTT0=
EXTT1=
EXTT2=
EXTT3=
EXTT4=
EXTT5=
EXTT6=
EXTT7=
EXTT8=
EXTT9=
EXTT10=
EXTT11=
EXTT12=
EXTT13=
EXTT14=
EXTT15=
EXTT16=
EXTT17=
PLAYORDER=
